<svg width="17" height="17" viewBox="0 0 17 17" fill="none" xmlns="http://www.w3.org/2000/svg">
<g clip-path="url(#clip0_8_292)">
<g clip-path="url(#clip1_8_292)">
<path d="M8.53003 16.5C12.9483 16.5 16.53 12.9183 16.53 8.5C16.53 4.08172 12.9483 0.5 8.53003 0.5C4.11175 0.5 0.530029 4.08172 0.530029 8.5C0.530029 12.9183 4.11175 16.5 8.53003 16.5Z" fill="#D1CEC3"/>
<path d="M7.15328 6.89943C7.25128 6.04543 7.67128 5.61143 8.44128 5.61143C9.15528 5.61143 9.63128 6.01743 9.63128 6.82943C9.63128 7.82343 9.07128 8.18743 8.06328 8.18743H7.44728V10.0634H8.90328V9.11143C10.0653 9.08343 11.3953 8.48143 11.3953 6.70343C11.3953 5.20543 10.2473 4.16943 8.55328 4.16943C6.83128 4.16943 5.90728 4.98143 5.61328 6.35343L7.15328 6.89943ZM7.11128 11.6454C7.11128 12.2474 7.57328 12.6534 8.17528 12.6534C8.79128 12.6534 9.25328 12.2474 9.25328 11.6454C9.25328 11.0434 8.79128 10.6374 8.17528 10.6374C7.57328 10.6374 7.11128 11.0434 7.11128 11.6454Z" fill="#262420"/>
</g>
</g>
<defs>
<clipPath id="clip0_8_292">
<rect width="16" height="16" fill="white" transform="translate(0.530029 0.5)"/>
</clipPath>
<clipPath id="clip1_8_292">
<rect width="16" height="16" fill="white" transform="translate(0.530029 0.5)"/>
</clipPath>
</defs>
</svg>
