<svg width="24" height="25" viewBox="0 0 24 25" fill="none" xmlns="http://www.w3.org/2000/svg">
<path d="M2.33496 10.8368C2.02171 10.5471 2.19187 10.0234 2.61557 9.97316L8.61914 9.26107C8.79182 9.24059 8.94181 9.13215 9.01465 8.97425L11.5469 3.48446C11.7256 3.09703 12.2764 3.09695 12.4551 3.48439L14.9873 8.97413C15.0601 9.13204 15.2092 9.24077 15.3818 9.26124L21.3857 9.97316C21.8094 10.0234 21.9791 10.5472 21.6659 10.8369L17.2278 14.9419C17.1001 15.06 17.0433 15.2357 17.0771 15.4063L18.255 21.3359C18.3382 21.7544 17.8928 22.0787 17.5205 21.8703L12.2451 18.9166C12.0934 18.8317 11.9091 18.8321 11.7573 18.917L6.48144 21.8695C6.10913 22.0779 5.66294 21.7544 5.74609 21.3359L6.92414 15.4066C6.95803 15.2361 6.90134 15.0599 6.77367 14.9419L2.33496 10.8368Z" fill="#232321"/>
</svg>
