<svg width="56" height="63" viewBox="0 0 56 63" fill="none" xmlns="http://www.w3.org/2000/svg">
<ellipse cx="15.3746" cy="31.6894" rx="5.24524" ry="23.5449" fill="#262420"/>
<ellipse cx="3.75752" cy="31.6894" rx="3.75721" ry="14.3874" fill="#262420"/>
<path d="M31.9373 0.597412C35.8119 0.597479 39.093 9.64371 40.2205 22.1462C41.1608 17.5196 42.7652 14.4714 44.5867 14.4714C46.8942 14.4717 48.8518 19.3636 49.5535 26.1599C50.2261 24.8784 51.1316 24.0926 52.1287 24.0925C54.2037 24.0925 55.8864 27.4937 55.8865 31.6892C55.8865 35.8849 54.2037 39.2869 52.1287 39.2869C51.1314 39.2868 50.2261 38.5003 49.5535 37.2185C48.8518 44.0151 46.8942 48.9067 44.5867 48.907C42.765 48.907 41.1608 45.8587 40.2205 41.2312C39.0931 53.7342 35.812 62.7809 31.9373 62.781C27.1307 62.781 23.2341 48.8605 23.2341 31.6892C23.2341 14.5179 27.1307 0.597412 31.9373 0.597412Z" fill="#262420"/>
</svg>
