<svg width="19" height="19" viewBox="0 0 19 19" fill="none" xmlns="http://www.w3.org/2000/svg">
<g clip-path="url(#clip0_58_234)">
<path fill-rule="evenodd" clip-rule="evenodd" d="M9.95459 18.0905C14.3038 18.0905 17.8296 14.5648 17.8296 10.2155C17.8296 5.86627 14.3038 2.34052 9.95459 2.34052C5.60535 2.34052 2.07959 5.86627 2.07959 10.2155C2.07959 11.6279 2.4514 12.9534 3.10248 14.0996L2.07959 18.0905L6.1942 17.1364C7.31163 17.7448 8.59272 18.0905 9.95459 18.0905ZM9.95459 16.879C13.6347 16.879 16.6181 13.8957 16.6181 10.2155C16.6181 6.53542 13.6347 3.55206 9.95459 3.55206C6.27446 3.55206 3.29113 6.53542 3.29113 10.2155C3.29113 11.6364 3.73587 12.9535 4.49375 14.035L3.8969 16.2732L6.17455 15.7038C7.24863 16.445 8.55093 16.879 9.95459 16.879Z" fill="#BFC8D0"/>
<path d="M16.7046 9.65302C16.7046 13.3809 13.6825 16.403 9.95459 16.403C8.5327 16.403 7.21347 15.9634 6.12546 15.2126L3.81823 15.7894L4.42283 13.5221C3.65511 12.4265 3.20459 11.0924 3.20459 9.65302C3.20459 5.92509 6.22667 2.90302 9.95459 2.90302C13.6825 2.90302 16.7046 5.92509 16.7046 9.65302Z" fill="url(#paint0_linear_58_234)"/>
<path fill-rule="evenodd" clip-rule="evenodd" d="M9.95459 17.528C14.3038 17.528 17.8296 14.0023 17.8296 9.65302C17.8296 5.30377 14.3038 1.77802 9.95459 1.77802C5.60535 1.77802 2.07959 5.30377 2.07959 9.65302C2.07959 11.0654 2.4514 12.3909 3.10248 13.5371L2.07959 17.528L6.1942 16.5739C7.31163 17.1823 8.59272 17.528 9.95459 17.528ZM9.95459 16.3165C13.6347 16.3165 16.6181 13.3332 16.6181 9.65302C16.6181 5.97289 13.6347 2.98956 9.95459 2.98956C6.27446 2.98956 3.29113 5.97289 3.29113 9.65302C3.29113 11.0739 3.73587 12.391 4.49375 13.4725L3.8969 15.7107L6.17455 15.1413C7.24863 15.8825 8.55093 16.3165 9.95459 16.3165Z" fill="white"/>
<path d="M7.98584 5.9967C7.79864 5.62063 7.51137 5.65392 7.22123 5.65392C6.70267 5.65392 5.89404 6.27508 5.89404 7.43114C5.89404 8.37856 6.31153 9.41564 7.71831 10.9671C9.07596 12.4643 10.8599 13.2388 12.3408 13.2125C13.8218 13.1861 14.1265 11.9117 14.1265 11.4813C14.1265 11.2906 14.0081 11.1954 13.9266 11.1695C13.4219 10.9273 12.4911 10.476 12.2793 10.3912C12.0675 10.3065 11.9569 10.4212 11.8882 10.4835C11.6961 10.6665 11.3154 11.206 11.1851 11.3273C11.0547 11.4486 10.8604 11.3872 10.7795 11.3414C10.4819 11.2219 9.67497 10.863 9.03181 10.2395C8.23632 9.4684 8.18963 9.20307 8.03978 8.96693C7.91991 8.77799 8.00789 8.66211 8.05176 8.61143C8.22316 8.41371 8.4598 8.10839 8.56595 7.95668C8.67203 7.80492 8.58783 7.57458 8.53726 7.43114C8.31985 6.81408 8.13563 6.29753 7.98584 5.9967Z" fill="white"/>
</g>
<defs>
<linearGradient id="paint0_linear_58_234" x1="15.8608" y1="4.59051" x2="3.20459" y2="16.403" gradientUnits="userSpaceOnUse">
<stop stop-color="#5BD066"/>
<stop offset="1" stop-color="#27B43E"/>
</linearGradient>
<clipPath id="clip0_58_234">
<rect width="18" height="18" fill="white" transform="translate(0.95459 0.653015)"/>
</clipPath>
</defs>
</svg>
